<svg width="148" height="28" viewBox="0 0 148 28" fill="none" xmlns="http://www.w3.org/2000/svg">
<g clip-path="url(#clip0_2619_37368)">
<path d="M11.2521 8.32705C12.5291 8.31607 13.7932 8.57936 14.9567 9.09866C16.0826 9.59826 17.0952 10.3159 17.9346 11.2089C18.7863 12.118 19.4541 13.1792 19.9023 14.3356C20.8426 16.8004 20.8426 19.5186 19.9023 21.9835C19.454 23.1406 18.7862 24.2028 17.9346 25.1131C17.0944 26.0053 16.0819 26.7227 14.9567 27.2234C13.7933 27.7437 12.5294 28.0086 11.2521 27.9998C10.1496 28.003 9.05597 27.8053 8.02625 27.4166C6.99974 27.0277 6.19137 26.5314 5.60114 25.9277L4.83122 27.5487H0.332031V0.0455507H5.60114V10.3765C7.05158 9.01022 8.93523 8.32705 11.2521 8.32705ZM10.5268 23.3677C11.1932 23.3726 11.8523 23.2309 12.4562 22.953C13.0486 22.6813 13.5855 22.3049 14.0406 21.8424C14.5063 21.3717 14.8726 20.8145 15.1184 20.2031C15.6276 18.8997 15.6276 17.4561 15.1184 16.1528C14.8764 15.534 14.5097 14.9702 14.0406 14.4952C13.586 14.0318 13.0489 13.6549 12.4562 13.3832C11.8535 13.1023 11.1949 12.9575 10.5284 12.9593C9.87437 12.955 9.22358 13.0503 8.59905 13.2419C8.01458 13.4227 7.47919 13.7318 7.03303 14.1459C6.56212 14.6 6.2029 15.1545 5.98292 15.7669C5.70727 16.5602 5.57795 17.3959 5.60108 18.2342C5.58401 19.0106 5.7135 19.7834 5.98292 20.5131C6.20906 21.1114 6.56784 21.6523 7.03303 22.0962C7.48359 22.5134 8.01677 22.8341 8.59905 23.0382C9.2177 23.2556 9.87012 23.3646 10.5268 23.3603V23.3677ZM23.0143 0H28.285V27.5442H23.0143V0ZM37.2572 27.5442H31.9881V8.8574H37.2572L37.2572 27.5442ZM34.6226 6.29278C34.2404 6.29684 33.8611 6.22554 33.5071 6.08308C33.1531 5.94061 32.8316 5.72984 32.5612 5.46312C32.2909 5.19641 32.0772 4.87912 31.9328 4.52986C31.7884 4.18061 31.7161 3.80641 31.7202 3.42923C31.7133 3.04869 31.7842 2.67069 31.9287 2.31779C32.0731 1.96488 32.2881 1.64431 32.5609 1.37519C32.8309 1.10666 33.152 0.893514 33.5059 0.748059C33.8598 0.602605 34.2393 0.527718 34.6227 0.527718C35.006 0.527718 35.3856 0.602605 35.7394 0.748059C36.0933 0.893514 36.4145 1.10666 36.6844 1.37519C36.9572 1.64431 37.1722 1.96489 37.3166 2.31779C37.4611 2.6707 37.5319 3.0487 37.5251 3.42923C37.5292 3.80643 37.4569 4.18065 37.3125 4.52993C37.1681 4.87922 36.9545 5.19653 36.6841 5.46327C36.4138 5.73001 36.0922 5.9408 35.7382 6.08328C35.3842 6.22576 35.0049 6.29684 34.6226 6.29278ZM51.0427 8.8574C51.8413 8.86882 52.6359 8.97077 53.4109 9.16127C54.3509 9.37897 55.2304 9.79938 55.9862 10.3923C56.742 10.9852 57.3554 11.7359 57.7823 12.5905C58.3037 13.5708 58.565 14.8394 58.566 16.3962V27.5442H53.2567V16.5782C53.2725 16.0736 53.1747 15.5719 52.9703 15.109C52.7978 14.7309 52.5333 14.4006 52.2005 14.1474C51.875 13.9056 51.5062 13.7268 51.1134 13.6202C50.7157 13.5087 50.3043 13.4519 49.8909 13.4515C49.5222 13.4566 49.1562 13.5134 48.8038 13.6202C48.4041 13.7357 48.0286 13.9209 47.6952 14.1671C47.3422 14.4306 47.0495 14.7645 46.836 15.1471C46.5986 15.587 46.4802 16.08 46.4925 16.5782V27.5442H41.2282V8.8574H45.7351L46.5052 10.2884C47.14 9.85016 47.8339 9.50187 48.5667 9.25375C49.3634 8.98433 50.2006 8.85031 51.0427 8.8574ZM72.3499 16.6193L80.332 27.5443H74.0314L69.0287 20.0847L67.1579 22.0746V27.5439H61.8873V0.0455507H67.1579V15.2974L73.3047 8.8574H79.7209L72.3499 16.6193Z" fill="#4467FB"/>
</g>
<rect x="90.332" y="0.700989" width="57.4737" height="26.598" rx="13.299" fill="#F2F2F2"/>
<path d="M102.332 19.131V8.70099H105.748C106.831 8.70099 107.769 8.92032 108.562 9.35899C109.365 9.78832 109.985 10.395 110.424 11.179C110.863 11.963 111.082 12.873 111.082 13.909C111.082 14.9357 110.863 15.8457 110.424 16.639C109.985 17.423 109.365 18.0343 108.562 18.473C107.769 18.9117 106.831 19.131 105.748 19.131H102.332ZM103.984 17.661H105.776C106.513 17.661 107.153 17.507 107.694 17.199C108.245 16.891 108.669 16.457 108.968 15.897C109.267 15.337 109.416 14.6743 109.416 13.909C109.416 13.1437 109.262 12.4857 108.954 11.935C108.655 11.375 108.235 10.941 107.694 10.633C107.153 10.325 106.513 10.171 105.776 10.171H103.984V17.661Z" fill="#202234"/>
<path d="M116.209 19.299C115.481 19.299 114.814 19.1263 114.207 18.781C113.61 18.4357 113.134 17.9643 112.779 17.367C112.424 16.7697 112.247 16.093 112.247 15.337C112.247 14.5717 112.424 13.895 112.779 13.307C113.134 12.7097 113.61 12.243 114.207 11.907C114.804 11.5617 115.472 11.389 116.209 11.389C116.956 11.389 117.623 11.5617 118.211 11.907C118.808 12.243 119.28 12.7097 119.625 13.307C119.98 13.895 120.157 14.5717 120.157 15.337C120.157 16.1023 119.98 16.7837 119.625 17.381C119.27 17.9783 118.794 18.4497 118.197 18.795C117.6 19.131 116.937 19.299 116.209 19.299ZM116.209 17.829C116.657 17.829 117.054 17.7217 117.399 17.507C117.744 17.2923 118.015 16.9983 118.211 16.625C118.416 16.2423 118.519 15.813 118.519 15.337C118.519 14.861 118.416 14.4363 118.211 14.063C118.015 13.6897 117.744 13.3957 117.399 13.181C117.054 12.9663 116.657 12.859 116.209 12.859C115.77 12.859 115.374 12.9663 115.019 13.181C114.674 13.3957 114.398 13.6897 114.193 14.063C113.997 14.4363 113.899 14.861 113.899 15.337C113.899 15.813 113.997 16.2423 114.193 16.625C114.398 16.9983 114.674 17.2923 115.019 17.507C115.374 17.7217 115.77 17.829 116.209 17.829Z" fill="#202234"/>
<path d="M125.299 19.299C124.543 19.299 123.871 19.1263 123.283 18.781C122.705 18.4263 122.243 17.9503 121.897 17.353C121.561 16.7557 121.393 16.079 121.393 15.323C121.393 14.5763 121.561 13.9043 121.897 13.307C122.233 12.7097 122.695 12.243 123.283 11.907C123.871 11.5617 124.543 11.389 125.299 11.389C125.813 11.389 126.293 11.4823 126.741 11.669C127.189 11.8463 127.577 12.0937 127.903 12.411C128.239 12.7283 128.487 13.097 128.645 13.517L127.259 14.161C127.101 13.769 126.844 13.4563 126.489 13.223C126.144 12.9803 125.747 12.859 125.299 12.859C124.87 12.859 124.483 12.9663 124.137 13.181C123.801 13.3863 123.535 13.6803 123.339 14.063C123.143 14.4363 123.045 14.861 123.045 15.337C123.045 15.813 123.143 16.2423 123.339 16.625C123.535 16.9983 123.801 17.2923 124.137 17.507C124.483 17.7217 124.87 17.829 125.299 17.829C125.757 17.829 126.153 17.7123 126.489 17.479C126.835 17.2363 127.091 16.9143 127.259 16.513L128.645 17.171C128.496 17.5723 128.253 17.9363 127.917 18.263C127.591 18.5803 127.203 18.8323 126.755 19.019C126.307 19.2057 125.822 19.299 125.299 19.299Z" fill="#202234"/>
<path d="M132.992 19.299C132.217 19.299 131.536 19.1077 130.948 18.725C130.369 18.3423 129.963 17.829 129.73 17.185L130.948 16.611C131.153 17.0403 131.433 17.381 131.788 17.633C132.152 17.885 132.553 18.011 132.992 18.011C133.365 18.011 133.668 17.927 133.902 17.759C134.135 17.591 134.252 17.3623 134.252 17.073C134.252 16.8863 134.2 16.737 134.098 16.625C133.995 16.5037 133.864 16.4057 133.706 16.331C133.556 16.2563 133.402 16.2003 133.244 16.163L132.054 15.827C131.4 15.6403 130.91 15.3603 130.584 14.987C130.266 14.6043 130.108 14.161 130.108 13.657C130.108 13.1997 130.224 12.803 130.458 12.467C130.691 12.1217 131.013 11.8557 131.424 11.669C131.834 11.4823 132.296 11.389 132.81 11.389C133.5 11.389 134.116 11.5617 134.658 11.907C135.199 12.243 135.582 12.7143 135.806 13.321L134.588 13.895C134.438 13.531 134.2 13.2417 133.874 13.027C133.556 12.8123 133.197 12.705 132.796 12.705C132.45 12.705 132.175 12.789 131.97 12.957C131.764 13.1157 131.662 13.3257 131.662 13.587C131.662 13.7643 131.708 13.9137 131.802 14.035C131.895 14.147 132.016 14.2403 132.166 14.315C132.315 14.3803 132.469 14.4363 132.628 14.483L133.86 14.847C134.485 15.0243 134.966 15.3043 135.302 15.687C135.638 16.0603 135.806 16.5083 135.806 17.031C135.806 17.479 135.684 17.8757 135.442 18.221C135.208 18.557 134.882 18.823 134.462 19.019C134.042 19.2057 133.552 19.299 132.992 19.299Z" fill="#202234"/>
<defs>
<clipPath id="clip0_2619_37368">
<rect width="80" height="28" fill="white" transform="translate(0.332031)"/>
</clipPath>
</defs>
</svg>
